Coordinates
version=1
nRows=60
nColumns=12
inDegrees=yes

Units are S.I. units (second, meters, Newtons, ...)
Angles are in degrees

endheader
time	SC_y	SC_z	SC_x	AC_y	AC_z	AC_x	GH_y	GH_z	GH_yy	EL_x	PS_y
       0.0              -42.26           27.1          43.55          36.39          2.459          3.978          141.0         -18.38          53.16          131.3          45.77
   0.02641              -42.26           27.1          43.55          36.39          2.457          3.979          141.0         -18.37          53.15          131.3          45.78
   0.05282              -42.26           27.1          43.54          36.39          2.456          3.981          141.0         -18.36          53.14          131.3          45.79
   0.07923              -42.27          27.09          43.54          36.39          2.454          3.982          140.9         -18.35          53.13          131.3          45.81
    0.1056              -42.27          27.09          43.53          36.39          2.452          3.983          140.9         -18.34          53.11          131.3          45.82
     0.132              -42.27          27.09          43.53          36.39           2.45          3.984          140.9         -18.33           53.1          131.3          45.84
    0.1585              -42.27          27.09          43.53          36.39          2.448          3.986          140.8         -18.31          53.08          131.3          45.86
    0.1849              -42.27          27.08          43.52          36.39          2.446          3.988          140.8          -18.3          53.07          131.3          45.88
    0.2113              -42.28          27.08          43.52          36.39          2.444          3.989          140.7         -18.28          53.05          131.3           45.9
    0.2377              -42.28          27.08          43.51          36.39          2.442          3.991          140.7         -18.26          53.03          131.3          45.92
    0.2641              -42.28          27.08          43.51          36.39          2.439          3.993          140.6         -18.25          53.01          131.3          45.94
    0.2905              -42.28          27.07           43.5          36.38          2.436          3.995          140.6         -18.23          52.99          131.2          45.97
    0.3169              -42.29          27.07          43.49          36.38          2.433          3.998          140.5          -18.2          52.96          131.2          45.99
    0.3433              -42.29          27.07          43.49          36.38           2.43            4.0          140.5         -18.18          52.94          131.2          46.02
    0.3697              -42.29          27.06          43.48          36.38          2.426          4.003          140.4         -18.16          52.91          131.2          46.05
    0.3961               -42.3          27.06          43.47          36.38          2.422          4.006          140.3         -18.13          52.88          131.2          46.09
    0.4225               -42.3          27.05          43.46          36.38          2.418          4.009          140.2          -18.1          52.85          131.2          46.12
     0.449              -42.31          27.05          43.45          36.38          2.414          4.012          140.1         -18.07          52.81          131.2          46.16
    0.4754              -42.31          27.04          43.44          36.38          2.409          4.016          140.0         -18.03          52.77          131.2          46.21
    0.5018              -42.32          27.03          43.43          36.37          2.403           4.02          139.9          -18.0          52.73          131.2          46.26
    0.5282              -42.32          27.03          43.42          36.37          2.397          4.025          139.8         -17.95          52.68          131.1          46.31
    0.5546              -42.33          27.02           43.4          36.37          2.391           4.03          139.7         -17.91          52.63          131.1          46.37
     0.581              -42.34          27.01          43.39          36.37          2.384          4.035          139.5         -17.86          52.57          131.1          46.43
    0.6074              -42.35           27.0          43.37          36.36          2.376          4.041          139.4          -17.8          52.51          131.1           46.5
    0.6338              -42.36          26.99          43.35          36.36          2.367          4.048          139.2         -17.74          52.44          131.1          46.58
    0.6602              -42.37          26.98          43.33          36.36          2.357          4.055          139.0         -17.67          52.36          131.0          46.67
    0.6866              -42.38          26.97           43.3          36.35          2.345          4.064          138.8         -17.59          52.27          131.0          46.77
    0.7131              -42.39          26.95          43.28          36.35          2.333          4.073          138.5          -17.5          52.17          131.0          46.88
    0.7395              -42.41          26.94          43.24          36.34          2.319          4.084          138.3          -17.4          52.06          130.9          47.01
    0.7659              -42.42          26.92          43.21          36.34          2.303          4.096          137.9         -17.29          51.93          130.9          47.15
    0.7923              -42.44           26.9          43.17          36.33          2.284           4.11          137.6         -17.16          51.79          130.8          47.31
    0.8187              -42.46          26.87          43.12          36.33          2.263          4.126          137.2         -17.01          51.62          130.8           47.5
    0.8451              -42.49          26.84          43.07          36.32          2.239          4.145          136.7         -16.84          51.43          130.7          47.71
    0.8715              -42.52          26.81          43.01          36.31           2.21          4.166          136.1         -16.64          51.21          130.6          47.97
    0.8979              -42.55          26.77          42.94           36.3          2.177          4.191          135.5         -16.41          50.95          130.5          48.26
    0.9243              -42.59          26.73          42.85          36.28          2.138          4.221          134.7         -16.14          50.64          130.4          48.61
    0.9507              -42.64          26.67          42.75          36.27          2.092          4.256          133.8         -15.81          50.27          130.3          49.02
    0.9771               -42.7          26.61          42.63          36.25          2.036          4.298          132.7         -15.42          49.83          130.2          49.51
     1.004              -42.77          26.53          42.48          36.23          1.969          4.349          131.4         -14.95           49.3          130.0          50.11
      1.03              -42.86          26.43           42.3           36.2          1.887          4.412          129.8         -14.37          48.65          129.7          50.83
     1.056              -42.96          26.32          42.08          36.16          1.785          4.489          127.8         -13.66          47.85          129.5          51.73
     1.083              -43.09          26.17          41.81          36.12          1.659          4.585          125.3         -12.77          46.86          129.1          52.86
     1.109              -43.26          25.98          41.46          36.07          1.499          4.705          122.1         -11.66           45.6          128.7          54.27
     1.136              -43.47          25.75          41.02           36.0          1.296          4.859          118.1         -10.23           44.0          128.1          56.06
     1.162              -43.74          25.45          40.45          35.91          1.037          5.056          113.0         -8.415          41.96          127.4          58.36
     1.188              -44.09          25.06          39.73           35.8         0.7041          5.308          106.5         -6.081          39.33          126.5          61.31
     1.215              -44.53          24.57           38.8          35.65         0.2788           5.63          98.08           -3.1          35.98          125.4          65.08
     1.241              -45.08          23.95          37.64          35.47        -0.2559          6.036          87.55         0.6496          31.77          123.9          69.82
     1.268              -45.76          23.19          36.22          35.25        -0.9074          6.529          74.72          5.218          26.63          122.1          75.59
     1.294              -46.55          22.31          34.57          34.99         -1.663          7.102          59.84          10.51          20.67          120.1          82.28
      1.32               -47.4          21.36          32.79          34.71         -2.481          7.722          43.73          16.25          14.23          117.8          89.53
     1.347              -48.25          20.41          31.01          34.43         -3.298          8.341          27.63          21.98          7.782          115.6          96.78
     1.373              -49.03          19.54          29.37          34.18         -4.054          8.914          12.75          27.28          1.828          113.5          103.5
       1.4              -49.71          18.78          27.95          33.96         -4.705          9.408       -0.08559          31.85         -3.309          111.8          109.2
     1.426              -50.27          18.16          26.78          33.77          -5.24          9.813         -10.62           35.6         -7.524          110.3          114.0
     1.453              -50.71          17.66          25.86          33.63         -5.665          10.14         -18.99          38.58         -10.88          109.1          117.7
     1.479              -51.06          17.28          25.13          33.52         -5.998          10.39         -25.55          40.91          -13.5          108.2          120.7
     1.505              -51.33          16.98          24.57          33.43         -6.257          10.58         -30.66          42.73         -15.55          107.5          123.0
     1.532              -51.54          16.74          24.13          33.36          -6.46          10.74         -34.65          44.15         -17.14          107.0          124.8
     1.558               -51.7          16.56          23.78           33.3          -6.62          10.86         -37.79          45.27          -18.4          106.5          126.2
